<svg version="1.2" baseProfile="tiny-ps" xmlns="http://www.w3.org/2000/svg" width="257" height="257">
<title>Genius Lounge</title><path fill="#fff" stroke="#000" stroke-width="5" d="M254.538 128.48c0 69.6-56.42 126.02-126.019 126.02C58.921 254.5 2.5 198.08 2.5 128.48 2.5 58.883 58.92 2.463 128.52 2.463c69.598 0 126.018 56.42 126.018 126.019Z"/><path fill="#87b840" d="m96.37 153.052 3.801-3.073 10.504 1.168zM157.266 154.435l-14.199-2.525 10.541-.717z"/><path fill="#e7bd45" d="m113.666 226.933 11.069 18.523-22.733-4.432z"/><path fill="#fdce1e" d="m86.793 216.685 15.209 24.339 11.664-14.091z"/><path fill="#eace37" d="m102.947 199.382-16.154 17.303 26.873 10.248z"/><path fill="#eec25d" d="m86.446 183.346.347 33.339 16.154-17.303z"/><path fill="#d09114" d="m105.136 173.73-18.69 9.616 16.501 16.036z"/><path fill="#eec616" d="m96.37 153.052-9.924 30.294 18.69-9.615z"/><path fill="#e0b048" d="m110.675 151.147-14.305 1.905 8.766 20.679z"/><path fill="#efbb05" d="m102.947 199.382 22.845-.485-12.126 28.036z"/><path fill="#fdce1e" d="m105.136 173.73 20.656 25.167-22.845.485z"/><path fill="#ecbd39" d="m105.136 173.73 21.306-3.43-6.723-17.236-5.234-1.538-3.81-.38z"/><path fill="#f0a83c" d="m125.792 198.897.65-28.597-21.306 3.43z"/><path fill="#9a6829" d="m136.633 227.455-11.898 18 22.91-3.394z"/><path fill="#eaae1c" d="m163.944 218.437-16.299 23.624-11.012-14.606z"/><path fill="#f4c426" d="m148.591 200.419 15.353 18.018-27.311 9.018z"/><path fill="#d79616" d="m165.804 185.148-1.86 33.289-15.353-18.018z"/><path fill="#c37d1d" d="m147.569 174.695 18.235 10.453-17.213 15.27z"/><path fill="#eaa710" d="m157.266 154.435 8.538 30.713-18.235-10.453z"/><path fill="#f1bf3a" d="m143.067 151.91 14.199 2.525-9.697 20.26zM148.591 200.419l-22.799-1.522 10.841 28.558z"/><path fill="#ddb73a" d="m147.569 174.695-21.777 24.202 22.799 1.522z"/><path fill="#f0a83c" d="m147.569 174.695-21.127-4.395 7.877-17.006 4.919-1.206 3.829-.178z"/><path fill="#fdce1e" d="m125.792 198.897.65-28.597 21.127 4.395z"/><path fill="#e9cb5c" d="m119.719 153.064 7.067 2.078 7.533-1.848-7.877 17.006z"/><path fill="#eace37" d="m125.792 198.897-12.126 28.036 22.967.522z"/><path fill="#daa823" d="m124.735 245.456-11.069-18.523 22.967.522z"/><path fill="#2f5f11" d="m135.269 12.143-4.223 17.354 6.422 17.596 3.283-8.372z"/><path fill="#1b5405" d="m121.09 25.665 4.238 30.914-7.313-14.775z"/><path fill="#819b5e" d="m106.915 19.379 18.413 37.2-13.325-15.521z"/><path fill="#7c9881" d="m125.328 56.579.379 42.865 8.835-14.218z"/><path fill="#5a7435" d="m100.171 149.979 12.045-6.64-1.541 7.808z"/><path fill="#54703d" d="m118.225 136.105-6.009 7.234 2.269 8.187z"/><path fill="#294a1f" d="m144.081 135.396-25.856.709 2.803 11.236z"/><path fill="#335c24" d="m124.838 121.48-6.613 14.625 25.856-.71z"/><path fill="#42642f" d="m145.558 126.19-27.333 9.915 25.856-.71z"/><path fill="#86a268" d="m161.014 143.57-12.239-2.131-1.79 5.796z"/><path fill="#265109" d="m141.877 144.013 6.898-2.574-1.79 5.796z"/><path fill="#718d5c" d="m170.012 131.538-21.237 9.9.201-8.842z"/><path fill="#64804d" d="m141.877 144.013 2.204-8.617 4.694 6.043z"/><path fill="#5a7958" d="m145.558 126.19 3.418 6.406-4.895 2.8z"/><path fill="#567150" d="m148.775 141.439.201-8.843-4.895 2.8z"/><path fill="#476742" d="m173.612 97.46-26.538 12.545-1.516 16.185z"/><path fill="#5e833d" d="m173.489 102.864-8.59 3.519-9.572 9.413z"/><path fill="#8da885" d="m168.405 111.657-13.078 4.139-9.769 10.394z"/><path fill="#557047" d="m166.623 118.436-21.065 7.754 3.418 6.406z"/><path fill="#81a873" d="m168.891 121.375-11.091 4.14-8.824 7.08 9.1-.457z"/><path fill="#79a455" d="m103.396 145.814.614-5.392 8.206 2.917z"/><path fill="#2c531c" d="m118.225 136.105-14.215 4.317 8.206 2.917z"/><path fill="#879f6f" d="m90.176 135.468 15.158-1.958-1.324 6.912z"/><path fill="#5c8525" d="m95.876 146.92 8.134-6.498-.614 5.392z"/><path fill="#51714a" d="m118.225 136.105-12.891-2.595-1.324 6.912z"/><path fill="#57784d" d="m93.643 120.772 14.279 7.02 13.277 1.735z"/><path fill="#86ae6f" d="m105.334 133.51 2.588-5.717 10.303 8.312z"/><path fill="#859f84" d="m124.838 121.48-14.155 4.706 10.516 3.34z"/><path fill="#576b36" d="m107.468 114.028 3.215 12.158 14.155-4.705z"/><path fill="#81a873" d="m89.452 113.243 21.231 12.943-4.961-9.753z"/><path fill="#375e31" d="m85.028 105.155 20.694 11.278-5.376-8.978z"/><path fill="#b8ccb3" d="m79.218 87.759 28.25 26.269-2.341-15.961z"/><path fill="#8da58f" d="m125.707 99.444-7.826 19.052 18.868-7.19z"/><path fill="#56745a" d="m147.074 110.005-22.236 11.476 11.259 8.14z"/><path fill="#284e25" d="m145.558 126.19 1.516-16.185-10.977 19.617z"/><path fill="#67886b" d="m147.074 110.005 2.637-9.77-24.873 21.246z"/><path fill="#6d8f6c" d="m95.845 83.198 22.036 35.298 7.826-19.052z"/><path fill="#537157" d="m146.123 66.587-20.416 32.857 13.056-4.048z"/><path fill="#32512f" d="m179.671 57.72-40.908 37.676-2.014 15.91z"/><path fill="#cde2d1" d="m177.843 33.81-31.72 32.777-7.36 28.809 3.884-3.577z"/><path fill="#396729" d="m125.328 56.579 12.14-9.486-2.926 38.133z"/><path fill="#3c6930" d="m146.123 66.587 12.917-50.612-18.289 22.746z"/><path fill="#9cb68f" d="m137.468 47.093 3.283-8.372 5.372 27.866-11.581 18.639z"/><path fill="#2f5812" d="m75.636 22.847 28.752 46.962 1.636-11.84z"/><path fill="#bfdda9" d="m78.38 44.993 24.437 41.998 1.571-17.182z"/><path fill="#5e7e59" d="m125.707 99.444-21.319-29.635-1.571 17.182z"/><path fill="#22491c" d="m116.896 61.906.052.219 8.759 37.319-21.319-29.635z"/><path fill="#97ba76" d="m91.694 17.402 14.33 40.568 19.304-1.391z"/><path fill="#325c1d" d="m121.028 147.34 23.053-11.944-2.204 8.617z"/><path fill="#265109" d="m114.485 151.526 6.543-4.185 5.758 7.8zM139.238 152.088l-6.346-4.477-6.106 7.53z"/><path fill="#8da37f" d="m88.787 123.61 16.547 9.9 2.588-5.717z"/><path fill="#3c6b25" d="m172.527 85.7-17.6 2.912-5.216 11.623z"/><path fill="#345d25" d="m172.881 70.13-6.659 4.38-3.552 12.82z"/><path fill="#4c7146" d="m154.927 88.612 11.295-14.102-3.552 12.82z"/><path fill="#32502c" d="m136.749 111.307 18.178-22.695-5.216 11.623z"/><path fill="#c0d1c1" d="m147.074 110.005 9.619-14.202-6.982 4.432z"/><path fill="#497246" d="m78.006 71.699 27.121 26.368-9.282-14.87z"/><path fill="#678e33" d="m125.834 15.22-.506 41.359 12.14-9.486z"/><path fill="#819b5e" d="m116.896 61.906 8.432-5.327.379 42.865z"/><path fill="#6d8f6c" d="m106.024 57.97-1.636 11.839 20.94-13.23z"/><path fill="#497246" d="m107.468 114.028-7.122-6.573 5.376 8.978 4.961 9.753z"/><path fill="#284e25" d="m105.127 98.067 12.754 20.429-10.413-4.468z"/><path fill="#3c6b25" d="m136.749 111.307-18.868 7.189 6.957 2.985z"/><path fill="#5a7435" d="m153.608 151.193-11.731-7.18-8.985 3.598z"/><path fill="#51714a" d="m141.877 144.013-8.985 3.598-11.864-.27z"/><path fill="#718d5c" d="m118.225 136.105 2.803 11.236-6.543 4.185z"/><path fill="#576b36" d="m136.749 111.307-11.042-11.863 13.056-4.048z"/><path fill="#497246" d="m118.225 136.105 2.974-6.578-13.277-1.734z"/><path fill="#64804d" d="m121.028 147.34 5.758 7.802 6.106-7.531z"/><path fill="#87b840" d="m143.067 151.91-3.829.178-6.346-4.477z"/><path fill="#265109" d="m153.608 151.193-20.716-3.582 10.175 4.299z"/><path fill="#5c8525" d="m114.485 151.526-2.269-8.187-1.541 7.808z"/><path fill="none" stroke="#000" stroke-linejoin="round" stroke-width="3" d="m96.37 153.051 3.8-3.072 10.505 1.167Zm57.238-1.859-10.54.718 14.198 2.524Zm-51.606 89.832 22.733 4.432-11.069-18.523Zm-15.21-24.34 15.21 24.34 11.664-14.091Zm16.155-17.302-16.154 17.302 26.873 10.249Zm-16.501-16.036.347 33.338 16.154-17.302Zm18.69-9.615-18.69 9.615 16.501 16.036Zm-8.766-20.68-9.924 30.295 18.69-9.615Zm14.305-1.905-14.305 1.905 8.767 20.68Zm2.991 75.787 12.126-28.036-22.845.485Zm-10.719-27.551 22.845-.485-20.656-25.166Zm2.19-25.651 21.305-3.432-6.723-17.235-5.234-1.539-3.81-.379Zm20.655 25.166.65-28.598-21.306 3.432Zm10.84 28.557-11.897 18.002 22.91-3.395Zm0 0 11.013 14.607 16.299-23.624Zm0 0 27.312-9.017-15.353-18.018Zm11.96-27.035 15.352 18.018 1.86-33.289Zm0 0 17.212-15.27-18.235-10.454Zm-1.023-25.724 18.235 10.453-8.538-30.714Zm0 0 9.697-20.26-14.199-2.525Zm1.022 25.724-22.799-1.522 10.84 28.557Zm-1.022-25.724-21.777 24.202 22.8 1.522Zm-4.502-22.785-3.829.177-4.919 1.207-7.877 17.005 21.127 4.396Zm4.502 22.785-21.127-4.396-.65 28.598Zm-21.127-4.396 7.877-17.005-7.533 1.848-7.067-2.078Zm-.65 28.598-12.126 28.036 22.967.521Zm10.84 28.557-22.966-.521 11.069 18.523Zm-1.363-215.31-4.223 17.353 6.422 17.595 3.283-8.371Zm-17.254 29.66 7.313 14.774-4.238-30.914Zm-6.012-.746 13.325 15.52-18.413-37.2Zm13.325 15.52.379 42.866 8.835-14.219Zm-14.653 94.568 1.541-7.807-12.045 6.64Zm7.55-15.042-6.009 7.235 2.27 8.186Zm25.856-.708-25.856.708 2.803 11.237Zm-19.243-13.916-6.613 14.624 25.856-.708Zm20.72 4.71-27.333 9.914 25.856-.708Zm15.456 17.38-12.239-2.132-1.79 5.796Zm-14.03 3.664 1.791-5.796-6.898 2.575Zm1.992-14.638-.2 8.842 21.236-9.9Zm-.2 8.842-4.695-6.042-2.204 8.617Zm-4.695-6.042 4.895-2.8-3.418-6.406Zm4.694 6.042.201-8.842-4.895 2.8Zm24.837-43.978-26.538 12.545-1.516 16.185Zm-.123 5.404-8.59 3.519-9.572 9.413Zm-5.084 8.793-13.078 4.139-9.769 10.394Zm-1.782 6.779-21.065 7.754 3.418 6.406Zm2.268 2.939-11.091 4.14-8.824 7.08 9.1-.457Zm-56.675 21.964-8.206-2.917-.614 5.392Zm6.01-7.235-14.216 4.318 8.206 2.917Zm-14.216 4.318 1.324-6.913-15.158 1.958Zm-.614 5.392.614-5.392-8.134 6.497Zm14.83-9.71-12.892-2.595-1.324 6.913Zm-24.583-15.332 14.279 7.02 13.277 1.735Zm24.582 15.332-10.303-8.311-2.588 5.716Zm6.613-14.624-14.155 4.706 10.516 3.341Zm-17.37-7.452 3.215 12.158 14.155-4.706Zm-18.016-.785 21.23 12.943-4.96-9.753Zm-4.424-8.088 20.694 11.278-5.376-8.979Zm-5.81-17.396 28.25 26.269-2.34-15.962Zm46.489 11.685-7.826 19.052 18.868-7.19Zm21.367 10.56-22.236 11.476 11.259 8.142Zm-1.516 16.186 1.516-16.185-10.977 19.617Zm1.516-16.185 2.637-9.77-24.873 21.245ZM95.845 83.198l22.036 35.298 7.826-19.052Zm50.278-16.611-20.416 32.857 13.056-4.048Zm33.548-8.868-40.908 37.677-2.014 15.91Zm-1.828-23.909-31.72 32.777-7.36 28.809 3.884-3.577Zm-43.301 51.416 2.926-38.133-12.14 9.485Zm11.581-18.64 12.917-50.612-18.289 22.747Zm-11.581 18.64 11.581-18.64-5.372-27.865-3.283 8.371ZM75.636 22.847l28.752 46.961 1.636-11.839Zm2.744 22.146 24.437 41.998 1.57-17.183Zm47.327 54.45-21.32-29.635-1.57 17.183Zm-21.32-29.635 21.32 29.636-8.76-37.32-.05-.219ZM91.695 17.402l14.33 40.567 19.304-1.39Zm50.183 126.61 2.204-8.616-23.053 11.945Zm-15.091 11.13-5.758-7.8-6.543 4.183Zm12.452-3.055-6.346-4.477-6.106 7.532ZM88.787 123.61l16.547 9.9 2.588-5.717Zm4.258 8.669 3.623-3.954-7.881-4.715m83.74-37.91-17.6 2.911-5.216 11.624Zm.354-15.57-6.66 4.38-3.55 12.82Zm-10.21 17.2 3.55-12.82-11.294 14.101Zm-12.96 12.905 5.216-11.624-18.178 22.695Zm-2.637 9.77 9.619-14.202-6.982 4.432ZM78.006 71.698l27.121 26.368-9.282-14.868Zm47.828-56.478-.506 41.358 12.14-9.486Zm-.127 84.224-.38-42.866-8.43 5.327Zm-19.683-41.475-1.636 11.84 20.94-13.23Zm1.444 56.059-7.122-6.574 5.376 8.979 4.96 9.753Zm0 0 10.413 4.468-12.754-20.43Zm29.28-2.722-18.867 7.19 6.957 2.984Zm16.86 39.886-11.731-7.18-8.985 3.598Zm-32.58-3.851 11.864.27 8.985-3.598Zm-6.543 4.184 6.543-4.184-2.803-11.237Zm24.278-56.13-13.056 4.049 11.042 11.862Zm-20.538 40.71 2.974-6.578-13.277-1.734Zm2.803 11.236 5.758 7.801 6.106-7.532Zm11.864.27 6.346 4.476 3.83-.177Zm20.716 3.581-20.716-3.582 10.175 4.3Zm-39.123.333-2.269-8.186-1.541 7.807Z"/><path d="M110.125 178.143v-39.994h7.549v32.995h9.953v6.999z"/><path fill="#fff" d="M116.924 138.898v32.995h9.953v5.5h-16.002v-38.495zm1.5-1.5h-9.05v41.494h19.003v-8.499h-9.953z"/><path d="M138.209 178.583c-6.314 0-9.935-3.801-9.935-10.429v-20.017c0-6.627 3.621-10.428 9.935-10.428 6.312 0 9.933 3.8 9.933 10.428v20.017c0 6.628-3.621 10.429-9.933 10.429m0-33.876c-1.18 0-2.385.361-2.385 3.045v20.787c0 2.682 1.205 3.044 2.385 3.044 1.178 0 2.383-.362 2.383-3.044v-20.787c0-2.684-1.205-3.045-2.383-3.045"/><path fill="#fff" d="M138.209 138.458c5.938 0 9.183 3.52 9.183 9.679v20.017c0 6.16-3.245 9.679-9.183 9.679-5.94 0-9.185-3.52-9.185-9.679v-20.017c0-6.16 3.245-9.679 9.185-9.679m0 33.875c1.924 0 3.133-1.044 3.133-3.794v-20.787c0-2.75-1.209-3.795-3.133-3.795-1.925 0-3.135 1.045-3.135 3.795v20.787c0 2.75 1.21 3.794 3.135 3.794m0-35.375c-6.69 0-10.685 4.18-10.685 11.179v20.017c0 7 3.994 11.179 10.685 11.179 6.69 0 10.683-4.18 10.683-11.179v-20.017c0-7-3.994-11.179-10.683-11.179m0 33.875c-.729 0-1.635 0-1.635-2.294v-20.787c0-2.295.906-2.295 1.635-2.295.727 0 1.633 0 1.633 2.295v20.787c0 2.294-.906 2.294-1.633 2.294"/><path d="M160.042 178.638c-6.3 0-9.768-3.705-9.768-10.43v-30.06h7.55v30.446c0 2.627 1.145 2.989 2.384 2.989s2.384-.362 2.384-2.99v-30.445h7.22v30.06c0 6.725-3.47 10.43-9.77 10.43"/><path fill="#fff" d="M169.062 138.898v29.31c0 6.16-3.08 9.68-9.02 9.68-5.938 0-9.018-3.52-9.018-9.68v-29.31h6.05v29.696c0 2.75 1.209 3.739 3.134 3.739s3.134-.99 3.134-3.74v-29.695zm1.5-1.5h-8.72v31.196c0 2.239-.868 2.239-1.634 2.239-.804 0-1.634 0-1.634-2.24v-31.195h-9.05v30.81c0 7.105 3.834 11.18 10.518 11.18 6.686 0 10.52-4.075 10.52-11.18z"/><path d="m185.538 178.143-6.21-22.981v22.98h-6.945V138.15h8.914l4.89 18.129v-18.13h6.889v39.995z"/><path fill="#fff" d="M192.326 138.898v38.494h-6.214l-7.534-27.88v27.88h-5.445v-38.494h7.59l6.214 23.041v-23.041zm1.5-1.5h-8.389v13.218l-3.266-12.109-.299-1.11h-10.239v41.495h8.445v-18.08l4.586 16.972.3 1.108h8.862z"/><path d="M205.197 178.583c-6.3 0-9.769-3.704-9.769-10.429v-20.017c0-6.725 3.469-10.428 9.769-10.428s9.768 3.703 9.768 10.428v4.489h-7.218v-4.874c0-2.684-1.205-3.045-2.385-3.045s-2.385.361-2.385 3.045v20.787c0 2.627 1.147 2.99 2.385 2.99s2.385-.363 2.385-2.99v-6.344h-2.75v-7h9.968v12.96c0 6.724-3.468 10.428-9.768 10.428"/><path fill="#fff" d="M205.197 138.458c5.94 0 9.018 3.52 9.018 9.679v3.739h-5.718v-4.124c0-2.75-1.21-3.795-3.135-3.795s-3.135 1.045-3.135 3.795v20.787c0 2.75 1.21 3.74 3.135 3.74s3.135-.99 3.135-3.74v-7.094h-2.75v-5.5h8.468v12.21c0 6.158-3.079 9.678-9.018 9.678-5.94 0-9.019-3.52-9.019-9.679v-20.017c0-6.16 3.08-9.679 9.019-9.679m0-1.5c-6.685 0-10.519 4.075-10.519 11.179v20.017c0 7.104 3.834 11.179 10.519 11.179 6.684 0 10.518-4.075 10.518-11.179v-13.709h-11.468v8.5h2.75v5.594c0 2.24-.869 2.24-1.635 2.24s-1.635 0-1.635-2.24v-20.787c0-2.295.906-2.295 1.635-2.295.728 0 1.635 0 1.635 2.295v5.624h8.718v-5.239c0-7.104-3.834-11.179-10.518-11.179"/><path d="M217.374 178.143v-39.994h17.997v6.999h-10.449v9.223h8.304v6.999h-8.304v9.774h10.449v6.999z"/><path fill="#fff" d="M234.62 138.898v5.5h-10.448v10.723h8.304v5.499h-8.304v11.273h10.449v5.5h-16.497v-38.495zm1.5-1.5h-19.497v41.494h19.497v-8.499h-10.449v-8.273h8.304v-8.499h-8.304v-7.724h10.449z"/><path d="M32.245 122.583c-6.3 0-9.77-3.704-9.77-10.429V92.137c0-6.725 3.47-10.429 9.77-10.429s9.768 3.704 9.768 10.429v4.49h-7.219v-4.875c0-2.683-1.205-3.045-2.384-3.045-1.18 0-2.385.362-2.385 3.045v20.787c0 2.627 1.146 2.99 2.385 2.99s2.384-.363 2.384-2.99v-6.344h-2.75v-7h9.97v12.96c0 6.724-3.47 10.428-9.77 10.428"/><path fill="#fff" d="M32.245 82.458c5.939 0 9.018 3.52 9.018 9.679v3.74h-5.719v-4.125c0-2.75-1.21-3.795-3.134-3.795-1.925 0-3.135 1.045-3.135 3.795v20.787c0 2.75 1.21 3.74 3.135 3.74s3.134-.99 3.134-3.74v-7.094h-2.75v-5.5h8.47v12.21c0 6.158-3.08 9.678-9.02 9.678s-9.018-3.52-9.018-9.679V92.137c0-6.16 3.08-9.679 9.019-9.679m0-1.5c-6.685 0-10.52 4.075-10.52 11.179v20.017c0 7.104 3.835 11.179 10.52 11.179s10.518-4.075 10.518-11.179V98.446H31.294v8.5h2.75v5.593c0 2.24-.868 2.24-1.634 2.24-.767 0-1.635 0-1.635-2.24V91.752c0-2.295.906-2.295 1.635-2.295.728 0 1.634 0 1.634 2.295v5.624h8.72v-5.239c0-7.104-3.835-11.179-10.52-11.179"/><path d="M44.421 122.143V82.148h17.998v7H51.97v9.223h8.304v6.999H51.97v9.774h10.449v6.999z"/><path fill="#fff" d="M61.669 82.898v5.5H51.22V99.12h8.304v5.499H51.22v11.274H61.67v5.499H45.171V82.898zm1.5-1.5H43.671v41.495h19.498v-8.5H52.72v-8.273h8.304v-8.499H52.72v-7.724H63.17z"/><path d="m77.76 122.143-6.21-22.981v22.98h-6.945V82.149h8.915l4.889 18.13v-18.13h6.889v39.995z"/><path fill="#fff" d="M84.548 82.898v38.495h-6.214L70.8 93.512v27.88h-5.445V82.899h7.59l6.214 23.042V82.898zm1.5-1.5h-8.39v13.219l-3.265-12.11-.3-1.11H63.856v41.496H72.3v-18.08l4.586 16.971.3 1.109h8.862z"/><path d="M88.145 82.148h7.549v39.995h-7.55Z"/><path fill="#fff" d="M94.944 82.898v38.495h-6.05V82.898zm1.5-1.5h-9.05v41.495h9.05z"/><path d="M108.088 122.638c-6.3 0-9.769-3.704-9.769-10.429V82.148h7.55v30.446c0 2.627 1.146 2.99 2.384 2.99 1.239 0 2.385-.363 2.385-2.99V82.148h7.218v30.061c0 6.725-3.469 10.429-9.768 10.429"/><path fill="#fff" d="M117.106 82.898v29.311c0 6.16-3.079 9.679-9.018 9.679-5.94 0-9.019-3.52-9.019-9.679V82.898h6.05v29.696c0 2.75 1.21 3.74 3.134 3.74 1.925 0 3.135-.99 3.135-3.74V82.898zm1.5-1.5h-8.718v31.196c0 2.24-.869 2.24-1.635 2.24s-1.634 0-1.634-2.24V81.398h-9.05v30.811c0 7.105 3.834 11.179 10.519 11.179s10.518-4.074 10.518-11.179z"/><path d="M129.317 122.583c-6.299 0-9.768-3.704-9.768-10.429v-3.115h7.22v3.5c0 2.627 1.146 2.99 2.384 2.99 1.239 0 2.384-.363 2.384-2.99 0-3.305-2.29-5.4-4.943-7.827-3.225-2.95-6.88-6.295-6.88-12.575 0-6.725 3.43-10.429 9.66-10.429 6.227 0 9.658 3.704 9.658 10.429v1.96h-7.22v-2.345c0-2.676-1.093-3.045-2.274-3.045s-2.275.369-2.275 3.045c0 3.304 2.29 5.4 4.943 7.827 3.225 2.95 6.881 6.295 6.881 12.575 0 6.725-3.47 10.429-9.77 10.429"/><path fill="#fff" d="M129.373 82.458c5.884 0 8.909 3.52 8.909 9.679v1.21h-5.72v-1.595c0-2.75-1.1-3.795-3.024-3.795-1.925 0-3.025 1.045-3.025 3.795 0 7.919 11.824 9.404 11.824 20.402 0 6.16-3.08 9.679-9.02 9.679-5.938 0-9.018-3.52-9.018-9.679v-2.365h5.72v2.75c0 2.75 1.21 3.74 3.134 3.74s3.134-.99 3.134-3.74c0-7.92-11.823-9.404-11.823-20.402 0-6.16 3.024-9.679 8.91-9.679m0-1.5c-6.616 0-10.41 4.075-10.41 11.179 0 6.61 3.95 10.224 7.124 13.128 2.625 2.402 4.7 4.3 4.7 7.274 0 2.24-.869 2.24-1.635 2.24s-1.634 0-1.634-2.24v-4.25h-8.72v3.865c0 7.104 3.834 11.179 10.518 11.179 6.686 0 10.52-4.075 10.52-11.179 0-6.61-3.95-10.225-7.125-13.129-2.625-2.402-4.7-4.299-4.7-7.273 0-2.295.776-2.295 1.526-2.295s1.524 0 1.524 2.295v3.095h8.72v-2.71c0-7.104-3.794-11.179-10.409-11.179"/></svg>