<?xml version="1.0" encoding="UTF-8" standalone="yes"?>
<svg width="700pt" height="700pt" version="1.2" viewBox="0 0 700 700" baseProfile="tiny-ps" xmlns="http://www.w3.org/2000/svg">
  <title>bimi-svg-tiny-12-ps</title>
  <defs/>
  <g>
    <path d="m625.63 186.14c-1.1992-1.3828-2.9961-2.0938-4.8164-1.9062-3.3594 0.33594-81.031 9.0156-106.79 73.809l-41.273-14.617-2.8555-8.2305c-0.83984-2.3359-3.1172-3.8398-5.5977-3.6953l-35.281 3.6953c-40.375-2.1836-85.902-8.1211-92.512-14.281-10.359-9.7422-18.93-37.297-9.2383-60.09v0.003906c0.82031-1.9531 0.47266-4.1992-0.89844-5.8125-1.375-1.6094-3.543-2.3086-5.5977-1.8047-16.508 4.2305-32.199 11.176-46.426 20.555-17.25 13.48-29.461 32.379-34.664 53.645-50.832-1.418-101.36 8.332-148.01 28.562-6.4648 2.043-12.188 5.9375-16.465 11.199-1.793 1.2578-2.6914 3.4453-2.2969 5.6016-0.03125 0.51953-0.03125 1.043 0 1.5664 0 9.2383 8.9023 17.137 28.727 24.809 1.625 1.1758 6.0469 4.3672 14.727 9.6328 4.5352 2.7422 10.078 6.0469 17.137 10.023 1.8477 0.89453 46.312 21.617 91.504 19.375h0.003906c15.688 32.148 42.426 57.57 75.32 71.625 0.69141 0.29297 1.4336 0.44531 2.1836 0.44922 1.7266 0.039063 3.375-0.71484 4.4688-2.0508 1.0938-1.3359 1.5117-3.0977 1.1328-4.7812-2.9688-13.215-9.5742-48.105-7.6719-63.953 65.582-1.0391 130.36-14.609 190.85-39.984 7.0781 0.37109 14.129 1.1758 21.109 2.4062 5.9375 9.4648 30.574 45.695 66.809 56 1.7305 0.50781 3.6016 0.14844 5.0195-0.96094 1.4219-1.1094 2.2227-2.8359 2.1484-4.6367-1.8047-21.168-9.2695-41.457-21.613-58.746 11.762-14 52.809-64.848 62.16-102.37 0.42188-1.7891-0.058594-3.6719-1.2891-5.0391zm-463.57 131.99 4.5352 0.83984h1.0117c3.0898 0.27734 5.8242-2.0039 6.1016-5.0977 0.28125-3.0898-2.0039-5.8242-5.0938-6.1016l-47.211-8.5703c-9.9102-6.1055-13.609-8.9609-13.664-9.0156-0.45703-0.35547-0.96484-0.64062-1.5117-0.83984-6.2148-2.1602-12.125-5.1172-17.582-8.793 11.535 3.0781 30.688 8.0078 54.266 13.441 32.145 7.3906 62.609 16.465 72.016 19.32 1.3906 4.832 3.0547 9.5781 4.9805 14.223-19.656-0.085938-39.176-3.2617-57.848-9.4062zm142.02 10.078c1.6484-4.1328 4.5234-7.668 8.2383-10.121 3.7109-2.4531 8.0898-3.707 12.539-3.5977 40.129-1.1758 80.121-5.2188 119.67-12.098 4.5938-0.89453 9.0703-1.5117 13.441-2.0156-49.574 17.16-101.5 26.547-153.95 27.832zm249.03-38.359h0.003906c-1.8594 2.1133-1.8594 5.2773 0 7.3906 10.973 13.555 18.176 29.762 20.887 46.984-31.922-13.832-52.977-49.785-53.199-50.398-0.78125-1.3359-2.0781-2.2852-3.5859-2.6328-24.656-4.7422-49.992-4.7422-74.648 0-38.66 6.7617-77.754 10.766-116.98 11.984-16.238-1.0078-29.289 9.8008-35.055 28.84-4.1992 13.719 1.0078 45.414 4.3672 62.609h-0.003907c-34.008-18.414-59.176-49.738-69.832-86.914-0.28516-1.1875-0.95312-2.25-1.9023-3.0234l4.9844-7.8945c0.55078-0.89062 0.84375-1.9219 0.83984-2.9688v-27.105c0-3.0898-2.5078-5.5977-5.6016-5.5977-3.0898 0-5.5977 2.5078-5.5977 5.5977v25.426l-5.6016 8.6797-2.1836-0.61719 4.9844-6.832c0.69531-0.96094 1.0664-2.1172 1.0625-3.3047v-23.352c0-3.0898-2.5078-5.5977-5.5977-5.5977-3.0938 0-5.6016 2.5078-5.6016 5.5977v21.559l-6.0469 8.5156-1.9023-0.55859 3.9766-5.1523h-0.003906c0.75781-0.98047 1.1719-2.1797 1.1758-3.418v-23.969c0-3.0938-2.5078-5.5977-5.5977-5.5977-3.0938 0-5.6016 2.5039-5.6016 5.5977v22.398l-5.6016 7.2227c-11.816-3.2461-25.535-6.7773-39.594-10.023-24.641-5.6016-44.406-10.809-55.609-13.777l0.003906 0.003906c1.9648-1.1211 4.0273-2.0586 6.1602-2.8008 46.66-20.109 97.242-29.484 148.01-27.438 3.0781 0.25781 5.7812-2.0234 6.0508-5.0977 1.3984-16.297 15.566-39.648 30.91-51.016 10.043-6.7852 21.023-12.066 32.594-15.68-5.3203 23.742 2.7422 50.398 15.23 61.992s85.566 16.801 100.02 17.359h0.89453l31.023-3.3047 2.2969 6.3828v0.003907c0.56641 1.5938 1.8203 2.8516 3.418 3.4141l49 17.359c1.4102 0.5 2.9609 0.41406 4.3086-0.23828 1.3477-0.65234 2.375-1.8164 2.8594-3.2344 16.801-50.398 69.832-65.855 90.719-70.168-14.445 39.648-59.977 92.234-60.422 92.793z"/>
    <path d="m157.02 268.91c0 7.0234-3.0312 12.715-6.7773 12.715-3.7422 0-6.7734-5.6914-6.7734-12.715 0-7.0195 3.0312-12.711 6.7734-12.711 3.7461 0 6.7773 5.6914 6.7773 12.711"/>
    <use x="70" y="644"/>
    <use x="90.550781" y="644"/>
    <use x="104.359375" y="644"/>
    <use x="123.347656" y="644"/>
    <use x="142.242188" y="644"/>
    <use x="155.628906" y="644"/>
    <use x="174.617188" y="644"/>
    <use x="204.410156" y="644"/>
    <use x="224.453125" y="644"/>
    <use x="252.453125" y="644"/>
    <use x="262.867188" y="644"/>
    <use x="279.46875" y="644"/>
    <use x="298.703125" y="644"/>
    <use x="318.636719" y="644"/>
    <use x="345.050781" y="644"/>
    <use x="365.570312" y="644"/>
    <use x="379.382812" y="644"/>
    <use x="398.617188" y="644"/>
    <use x="418.660156" y="644"/>
    <use x="438.59375" y="644"/>
    <use x="455.191406" y="644"/>
    <use x="474.179687" y="644"/>
    <use x="70" y="672"/>
    <use x="82.183594" y="672"/>
    <use x="95.992188" y="672"/>
    <use x="115.226562" y="672"/>
    <use x="154.152344" y="672"/>
    <use x="167.535156" y="672"/>
    <use x="187.46875" y="672"/>
    <use x="216.207031" y="672"/>
    <use x="239.640625" y="672"/>
    <use x="258.878906" y="672"/>
    <use x="278.8125" y="672"/>
    <use x="308.492188" y="672"/>
    <use x="329.015625" y="672"/>
    <use x="342.820312" y="672"/>
    <use x="362.058594" y="672"/>
    <use x="371.65625" y="672"/>
    <use x="390.648438" y="672"/>
    <use x="407.242188" y="672"/>
  </g>
</svg>